<svg xmlns="http://www.w3.org/2000/svg" width="25" height="31" viewBox="0 0 25 31"><g><g><g><g><path fill="#32bbff" d="M18.932 11.28C15.8 9.329 10.77 6.192 2.97 1.325a1.718 1.718 0 0 0-1.654-.241l13.384 14.916z"/></g><g><path fill="#32bbff" d="M1.315 1.083a1.824 1.824 0 0 0-.284.136C.453 1.567.029 2.236.029 3.083v25.831c0 .847.424 1.517 1.002 1.865.09.054.186.099.284.136l13.384-14.916z"/></g><g><path fill="#32bbff" d="M14.699 15.999L1.315 30.915a1.7 1.7 0 0 0 1.654-.241c7.565-4.721 12.537-7.82 15.707-9.79l.26-.163z"/></g></g><g><path fill="#2c9fd9" d="M0 15.515V28.11c0 .826.424 1.479 1 1.818.092.053.187.096.285.133l13.37-14.546z"/></g><g><path fill="#29cc5e" d="M3.684.36a1.735 1.735 0 0 0-1.96-.107l13.617 15.262 4.487-5.028C16.658 8.5 11.573 5.31 3.684.36z"/></g><g><path fill="#d93f21" d="M15.338 15.515L1.724 30.775a1.723 1.723 0 0 0 1.96-.107c7.648-4.8 12.676-7.952 15.88-9.955l.264-.166z"/></g><g><path fill="#ffd500" d="M25 15.513c0-.71-.328-1.428-.977-1.826 0 0-1.215-.741-4.939-3.02l-4.429 4.846 4.434 4.85c3.682-2.262 4.934-3.025 4.934-3.025.65-.397.977-1.115.977-1.825z"/></g><g><path fill="#fa0" d="M24.023 17.34c.65-.398.977-1.115.977-1.825H14.655l4.434 4.849a2060.02 2060.02 0 0 1 4.934-3.024z"/></g></g></g></svg>