<svg xmlns="http://www.w3.org/2000/svg" width="144" height="80" viewBox="0 0 144 80"><g><g><g><g><path fill="#66a793" d="M8.397 72.977c-4.358 0-7.574-2.231-7.574-4.618v-2.646h.207c1.297 1.142 4.306 2.231 7.056 2.231 2.905 0 4.305-.83 4.305-2.594 0-1.349-.83-1.971-4.876-2.542-4.98-.675-7.367-2.698-7.367-6.277 0-4.358 3.943-8.145 9.961-8.145 5.344 0 7.523 2.749 7.523 5.032v2.23h-.26c-1.193-1.245-3.89-2.178-6.692-2.178-3.58 0-4.722 1.09-4.722 2.593 0 1.246.727 1.713 4.722 2.336 4.876.83 7.522 2.957 7.522 6.64 0 4.98-3.528 7.938-9.805 7.938z"/></g><g><path fill="#66a793" d="M36.152 64.469c0 2.386-1.245 3.631-3.735 3.631-2.594 0-4.047-1.09-4.047-2.906 0-1.92 1.245-2.956 5.707-2.956h2.075zm-3.165 8.404c5.188 0 8.872-3.476 8.872-8.457v-5.395c0-8.093-4.72-10.532-9.96-10.532-6.175 0-8.51 3.113-8.51 5.759v1.868h.208c.882-1.09 3.217-2.698 7.471-2.698 3.476 0 5.032.985 5.032 4.306v.311h-2.023c-8.664 0-11.725 3.165-11.725 7.367 0 4.306 3.84 7.47 9.442 7.47h1.193z"/></g><g><path fill="#66a793" d="M66.45 72.458c-2.594 0-4.255-1.66-4.255-3.84V59.28c0-3.942-1.764-5.707-4.773-5.707-2.49 0-4.254 1.92-4.254 5.292v13.593h-1.712c-2.49 0-4.098-1.66-4.098-3.84V58.45c0-4.928 3.268-10.064 10.583-10.064 5.5 0 10.116 3.735 10.116 10.375v13.697z"/></g><g><path fill="#66a793" d="M87.356 64.469c0 2.386-1.245 3.631-3.735 3.631-2.594 0-4.046-1.09-4.046-2.906 0-1.92 1.244-2.956 5.706-2.956h2.075zm-3.165 8.404c5.188 0 8.872-3.476 8.872-8.457v-5.395c0-8.093-4.72-10.532-9.96-10.532-6.175 0-8.51 3.113-8.51 5.759v1.868h.208c.882-1.09 3.217-2.698 7.471-2.698 3.476 0 5.033.985 5.033 4.306v.311H85.28c-8.664 0-11.725 3.165-11.725 7.367 0 4.306 3.84 7.47 9.442 7.47h1.193z"/></g><g><path fill="#66a793" d="M117.654 72.458c-2.594 0-4.255-1.66-4.255-3.84V59.28c0-3.942-1.764-5.707-4.772-5.707-2.49 0-4.255 1.92-4.255 5.292v13.593h-1.712c-2.49 0-4.098-1.66-4.098-3.84V58.45c0-4.928 3.268-10.064 10.583-10.064 5.5 0 10.117 3.735 10.117 10.375v13.697z"/></g><g><path fill="#66a793" d="M127.614 80.084c-2.179 0-4.098-1.453-4.098-3.631V75.31l3.32-.207c2.127-.104 2.854-.882 4.15-4.306-3.113-4.67-7.522-16.343-8.352-21.894h3.112c1.608 0 3.113 1.09 3.425 2.75.83 4.566 2.541 9.442 4.669 13.593 1.92-4.41 4.046-11.518 4.565-16.343h2.542c1.868 0 2.75.83 2.75 2.75 0 2.49-4.098 13.23-5.188 15.772-4.358 10.271-6.64 12.658-10.895 12.658z"/></g></g><g><g><g><path fill="#66a793" d="M108.858 8.302c3.327 0 4.636 1.504 4.636 4.254v9.079c0 3.891 1.855 5.551 4.527 5.551 2.509 0 4.2-1.66 4.2-4.877V8.302h1.635c2.727 0 4.473 1.504 4.473 4.254v9.079c0 3.891 1.908 5.551 4.58 5.551 2.4 0 4.2-1.816 4.2-5.033V8.302h1.636c2.51 0 4.473 1.556 4.473 4.254v9.13c0 6.382-3.545 10.688-11.017 10.688-3.218 0-5.727-1.4-7.526-3.684-1.419 2.18-4.09 3.684-7.09 3.684-5.672 0-10.254-3.269-10.254-9.96V8.301z"/></g></g><g><g><path fill="#66a793" d="M92.943 32.214c-4.745 0-7.362-2.541-7.362-7.314V8.974h1.745c2.726 0 4.363 1.401 4.363 4.358v10.997c0 2.387 1.09 3.112 3.762 3.112h1.145v1.246c0 2.541-1.036 3.527-3.653 3.527zM88.58 6.795c-1.963 0-3.544-1.556-3.544-3.424C85.036 1.504 86.617 0 88.58 0c1.964 0 3.654 1.504 3.654 3.371 0 1.868-1.69 3.424-3.654 3.424z"/></g></g><g><path fill="#66a793" d="M19.083 27.456l-6.652-.11v.002H9.463c-2.35-.243-3.272-1.46-3.272-3.702v-8.031H4.299c-2.613 0-3.946 1.313-3.946 3.842v4.484c0 4.522 2.814 8.076 8.652 8.275h5.218v-.002h4.86z"/></g><g><path fill="#66a793" d="M5.94 37.96c0 1.558-1.327 2.819-2.917 2.819-1.637 0-3.023-1.26-3.023-2.82 0-1.56 1.386-2.778 3.023-2.778 1.59 0 2.916 1.217 2.916 2.778z"/></g><g><path fill="#66a793" d="M12.644 37.96c0 1.558-1.333 2.819-2.967 2.819-1.59 0-2.917-1.26-2.917-2.82 0-1.56 1.327-2.778 2.917-2.778 1.634 0 2.967 1.217 2.967 2.778z"/></g><g><g><path fill="#66a793" d="M56.901 26.089c-3.817 0-6.38-2.128-6.38-5.188 0-3.942 2.618-5.862 8.726-5.862 4.144 0 6.925 2.075 6.925 5.032 0 3.32-2.509 6.018-6.925 6.018zm.822 6.146c.545 0 1.035.053 1.635.053H75.01c2.781 0 4.471-2.128 4.471-4.306v-.526H68.52c1.963-1.245 3.38-4.87 3.38-7.619 0-7.158-5.998-11.049-14.34-11.049-6.49 0-12.761 4.617-12.761 11.153 0 2.49.654 6.114 1.853 7.567H41.09c-2.454 0-4.363-.045-4.363 2.964v1.763z"/></g></g><g><g><path fill="#66a793" d="M120.817 29.894c0 1.608-1.467 2.542-3.866 2.542l-23.923-.237-1.674-2.098c0-1.504 1.333-2.645 3.6-2.645h25.863z"/></g></g><g><g><path fill="#66a793" d="M32.347 32.214c-4.744 0-7.362-2.541-7.362-7.314V8.974h1.745c2.727 0 4.363 1.401 4.363 4.358v10.997c0 2.387 1.09 3.112 3.762 3.112H36v1.246c0 2.541-1.035 3.527-3.653 3.527zM27.984 6.795c-1.962 0-3.544-1.556-3.544-3.424C24.44 1.504 26.022 0 27.984 0c1.964 0 3.654 1.504 3.654 3.371 0 1.868-1.69 3.424-3.654 3.424z"/></g></g><g><g><path fill="#66a793" d="M54.861 29.894c0 1.608.276 2.322-1.687 2.322L32.127 32.2l-1.369-2.098c0-1.504 1.09-2.645 2.945-2.645h21.158z"/></g></g><g><g><path fill="#66a793" d="M40.09 29.894c0 1.608-.95 2.341-2.914 2.341l-19.82-.036-1.368-2.098c0-1.504 1.09-2.645 2.944-2.645h21.159z"/></g></g><g><g><path fill="#66a793" d="M95.259 29.894c0 1.608-1.173 2.32-3.136 2.32L72.525 32.2l-1.37-2.098c0-1.504 1.091-2.645 2.945-2.645H95.26z"/></g></g></g></g></g></svg>