<svg xmlns="http://www.w3.org/2000/svg" width="97" height="54" viewBox="0 0 97 54"><g><g><g><g><path fill="#fff" d="M5.65 49.107C2.719 49.107.555 47.606.555 46v-1.78h.139c.873.767 2.898 1.5 4.748 1.5 1.955 0 2.897-.558 2.897-1.745 0-.908-.558-1.327-3.28-1.71C1.705 41.81.1 40.448.1 38.04c0-2.932 2.653-5.48 6.703-5.48 3.595 0 5.062 1.85 5.062 3.386v1.5h-.175c-.803-.837-2.618-1.465-4.504-1.465-2.408 0-3.177.733-3.177 1.745 0 .838.49 1.152 3.177 1.571 3.282.559 5.062 1.99 5.062 4.469 0 3.351-2.373 5.341-6.597 5.341z"/></g><g><path fill="#fff" d="M24.327 43.382c0 1.605-.838 2.443-2.513 2.443-1.746 0-2.723-.733-2.723-1.955 0-1.292.837-1.99 3.84-1.99h1.396zm3.84-.035v-3.63c0-5.447-3.176-7.088-6.702-7.088-4.155 0-5.726 2.095-5.726 3.875v1.257h.14c.593-.733 2.164-1.815 5.027-1.815 2.339 0 3.386.663 3.386 2.897v.21h-1.361c-5.83 0-7.89 2.13-7.89 4.957 0 2.897 2.584 5.027 6.354 5.027h.803c3.49 0 5.97-2.339 5.97-5.69z"/></g><g><path fill="#fff" d="M44.715 48.758c-1.746 0-2.863-1.117-2.863-2.584V39.89c0-2.653-1.187-3.84-3.212-3.84-1.675 0-2.862 1.292-2.862 3.561v9.147h-1.153c-1.675 0-2.757-1.117-2.757-2.584v-6.842c0-3.317 2.199-6.773 7.121-6.773 3.7 0 6.808 2.514 6.808 6.982v9.217z"/></g><g><path fill="#fff" d="M58.783 43.382c0 1.605-.838 2.443-2.513 2.443-1.746 0-2.723-.733-2.723-1.955 0-1.292.837-1.99 3.84-1.99h1.396zm-2.13 5.655c3.491 0 5.97-2.339 5.97-5.69v-3.63c0-5.447-3.176-7.088-6.702-7.088-4.155 0-5.726 2.095-5.726 3.875v1.257h.14c.593-.733 2.164-1.815 5.027-1.815 2.339 0 3.386.663 3.386 2.897v.21h-1.361c-5.83 0-7.89 2.13-7.89 4.957 0 2.897 2.583 5.027 6.354 5.027z"/></g><g><path fill="#fff" d="M79.17 48.758c-1.745 0-2.862-1.117-2.862-2.584V39.89c0-2.653-1.187-3.84-3.212-3.84-1.675 0-2.862 1.292-2.862 3.561v9.147h-1.152c-1.676 0-2.758-1.117-2.758-2.584v-6.842c0-3.317 2.199-6.773 7.121-6.773 3.7 0 6.808 2.514 6.808 6.982v9.217z"/></g><g><path fill="#fff" d="M85.873 53.89c-1.466 0-2.758-.978-2.758-2.444v-.768l2.235-.14c1.43-.07 1.92-.593 2.793-2.897-2.095-3.142-5.063-10.997-5.621-14.733h2.094c1.082 0 2.095.733 2.305 1.85.558 3.073 1.71 6.354 3.142 9.147 1.291-2.967 2.722-7.75 3.072-10.997h1.71c1.257 0 1.85.559 1.85 1.85 0 1.677-2.757 8.903-3.49 10.614-2.933 6.912-4.469 8.518-7.332 8.518z"/></g></g><g><g><g><path fill="#fff" d="M73.252 5.586c2.239 0 3.12 1.012 3.12 2.863v6.11c0 2.618 1.248 3.735 3.046 3.735 1.688 0 2.826-1.117 2.826-3.282V5.586h1.1c1.836 0 3.01 1.012 3.01 2.863v6.11c0 2.618 1.284 3.735 3.083 3.735 1.615 0 2.826-1.222 2.826-3.387v-9.32h1.1c1.689 0 3.01 1.047 3.01 2.862v6.144c0 4.294-2.386 7.192-7.413 7.192-2.165 0-3.854-.943-5.065-2.479-.954 1.466-2.752 2.479-4.77 2.479-3.817 0-6.9-2.2-6.9-6.703V5.586z"/></g></g><g><g><path fill="#fff" d="M62.542 21.678c-3.192 0-4.954-1.71-4.954-4.923V6.04h1.175c1.834 0 2.935.943 2.935 2.932v7.4c0 1.606.735 2.095 2.532 2.095H65v.838c0 1.71-.696 2.374-2.458 2.374zM59.607 4.573c-1.321 0-2.385-1.048-2.385-2.304C57.222 1.012 58.286 0 59.607 0c1.32 0 2.458 1.012 2.458 2.269 0 1.256-1.137 2.304-2.458 2.304z"/></g></g><g><path fill="#fff" d="M12.841 18.475l-4.476-.074v.002H6.368c-1.582-.164-2.202-.983-2.202-2.491v-5.405H2.893c-1.758 0-2.655.884-2.655 2.586v3.017c0 3.043 1.893 5.435 5.822 5.568h6.781z"/></g><g><path fill="#fff" d="M3.997 25.543c0 1.05-.893 1.897-1.963 1.897C.933 27.44 0 26.592 0 25.543c0-1.05.933-1.87 2.034-1.87 1.07 0 1.963.82 1.963 1.87z"/></g><g><path fill="#fff" d="M8.508 25.543c0 1.05-.897 1.897-1.996 1.897-1.07 0-1.963-.848-1.963-1.897 0-1.05.893-1.87 1.963-1.87 1.1 0 1.996.82 1.996 1.87z"/></g><g><g><path fill="#fff" d="M38.29 17.555c-2.569 0-4.293-1.431-4.293-3.49 0-2.653 1.76-3.945 5.87-3.945 2.79 0 4.661 1.396 4.661 3.386 0 2.234-1.688 4.05-4.66 4.05zm.552 4.137c.367 0 .697.035 1.101.035h10.532c1.871 0 3.008-1.432 3.008-2.898v-.354h-7.375c1.32-.838 2.275-3.276 2.275-5.126 0-4.817-4.037-7.435-9.65-7.435-4.368 0-8.587 3.106-8.587 7.505 0 1.675.44 4.114 1.247 5.091H27.65c-1.651 0-2.936-.03-2.936 1.995v1.187z"/></g></g><g><g><path fill="#fff" d="M81.3 20.116c0 1.082-.987 1.71-2.602 1.71l-16.099-.159-1.126-1.411c0-1.013.897-1.78 2.423-1.78H81.3z"/></g></g><g><g><path fill="#fff" d="M21.767 21.678c-3.193 0-4.954-1.71-4.954-4.923V6.04h1.174c1.835 0 2.936.943 2.936 2.932v7.4c0 1.606.734 2.095 2.532 2.095h.77v.838c0 1.71-.697 2.374-2.459 2.374zM18.83 4.573c-1.32 0-2.385-1.048-2.385-2.304C16.446 1.012 17.51 0 18.831 0c1.321 0 2.459 1.012 2.459 2.269 0 1.256-1.138 2.304-2.459 2.304z"/></g></g><g><g><path fill="#fff" d="M36.917 20.116c0 1.082.185 1.563-1.136 1.563l-14.162-.012-.921-1.411c0-1.013.734-1.78 1.981-1.78h14.238z"/></g></g><g><g><path fill="#fff" d="M26.977 20.116c0 1.082-.64 1.576-1.96 1.576l-13.338-.025-.92-1.411c0-1.013.733-1.78 1.98-1.78h14.238z"/></g></g><g><g><path fill="#fff" d="M64.1 20.116c0 1.082-.788 1.562-2.11 1.562l-13.187-.01-.921-1.412c0-1.013.733-1.78 1.981-1.78h14.238z"/></g></g></g></g></g></svg>